<svg width="44" height="48" viewBox="0 0 44 48" fill="none" xmlns="http://www.w3.org/2000/svg">
<path d="M42.5704 6.03031L22.3791 0.0420107C22.1901 -0.0139425 21.9886 -0.0139425 21.7996 0.0420107L1.60839 6.03031C1.18077 6.15654 0.887653 6.54531 0.887558 6.98648V28.9436C0.887558 37.7684 14.5005 45.6191 21.7896 47.8626C21.9867 47.9239 22.1982 47.9239 22.3953 47.8626C29.6763 45.619 43.2892 37.7683 43.2892 28.9436V6.98638C43.2893 6.54578 42.9971 6.15719 42.5704 6.03031Z" fill="#FF0043"/>
<path d="M20.0692 31.9377C19.8013 31.9382 19.5441 31.8334 19.3544 31.6462L11.278 23.6618C10.8907 23.2654 10.9017 22.6335 11.3028 22.2506C11.694 21.8771 12.3142 21.8771 12.7054 22.2506L20.0692 29.5283L33.4883 16.2623C33.8757 15.8658 34.5147 15.8548 34.9158 16.2378C35.3169 16.6207 35.3279 17.2525 34.9406 17.649C34.9325 17.6574 34.9243 17.6655 34.9158 17.6735L20.782 31.6462C20.5928 31.8328 20.3365 31.9376 20.0692 31.9377Z" fill="#FAFAFA"/>
</svg>
