<svg width="50" height="46" viewBox="0 0 50 46" fill="none" xmlns="http://www.w3.org/2000/svg">
<path d="M24.954 0.396545C11.6831 0.396545 0.886425 10.0026 0.886425 21.8103C0.886425 25.9376 2.20693 29.9357 4.71156 33.3928C4.23743 38.5773 2.96666 42.4263 1.12148 44.2496C0.8776 44.4907 0.816629 44.8595 0.970661 45.1641C1.10704 45.4361 1.38783 45.6034 1.68868 45.6034C1.72558 45.6034 1.76248 45.6011 1.80019 45.5955C2.1251 45.5503 9.67269 44.4764 15.132 41.3611C18.2319 42.5976 21.534 43.2241 24.954 43.2241C38.2248 43.2241 49.0215 33.6181 49.0215 21.8103C49.0215 10.0026 38.2248 0.396545 24.954 0.396545Z" fill="#FF0043"/>
<path d="M13.7225 24.9828C11.9527 24.9828 10.5135 23.5599 10.5135 21.8104C10.5135 20.0608 11.9527 18.6379 13.7225 18.6379C15.4922 18.6379 16.9315 20.0608 16.9315 21.8104C16.9315 23.5599 15.4922 24.9828 13.7225 24.9828Z" fill="white"/>
<path d="M24.954 24.9828C23.1842 24.9828 21.745 23.5599 21.745 21.8104C21.745 20.0608 23.1842 18.6379 24.954 18.6379C26.7237 18.6379 28.163 20.0608 28.163 21.8104C28.163 23.5599 26.7237 24.9828 24.954 24.9828Z" fill="white"/>
<path d="M36.1855 24.9828C34.4157 24.9828 32.9765 23.5599 32.9765 21.8104C32.9765 20.0608 34.4157 18.6379 36.1855 18.6379C37.9553 18.6379 39.3945 20.0608 39.3945 21.8104C39.3945 23.5599 37.9553 24.9828 36.1855 24.9828Z" fill="white"/>
</svg>
