<svg width="38" height="48" viewBox="0 0 38 48" fill="none" xmlns="http://www.w3.org/2000/svg">
<path d="M37.2158 9.84375V46.5938C37.2158 47.3813 36.5901 48 35.7934 48H1.65407C0.85739 48 0.231598 47.3813 0.231598 46.5938V1.40625C0.231598 0.618656 0.85739 0 1.65407 0H24.4136L27.2586 4.92188L30.1035 7.03125L37.2158 9.84375Z" fill="#FF0043"/>
<path d="M36.6469 8.71866L25.2671 0.281156C25.0111 0.112406 24.7265 0 24.4136 0V8.4375C24.4136 9.21412 25.0505 9.84375 25.8361 9.84375H37.2158C37.2158 9.39384 37.0167 8.97188 36.6469 8.71866Z" fill="#D30037"/>
<path d="M14.2396 27.3779C13.8228 26.7201 14.0257 25.8522 14.6924 25.4402L21.2492 21.3917C21.9132 20.9852 22.7939 21.1816 23.2078 21.8408C23.6246 22.4986 23.4217 23.3664 22.755 23.7785L16.1983 27.827C15.5394 28.2341 14.6589 28.0424 14.2396 27.3779Z" fill="white"/>
<path d="M21.2492 34.8582L14.6924 30.8097C14.0257 30.3977 13.8228 29.5299 14.2396 28.872C14.6564 28.2114 15.5398 28.0179 16.1983 28.4229L22.755 32.4714C23.4217 32.8835 23.6246 33.7513 23.2078 34.4092C22.7883 35.074 21.9078 35.2652 21.2492 34.8582Z" fill="white"/>
<path d="M13.0338 32.3438C10.6807 32.3438 8.76642 30.4513 8.76642 28.125C8.76642 25.7987 10.6807 23.9062 13.0338 23.9062C15.387 23.9062 17.3012 25.7987 17.3012 28.125C17.3012 30.4513 15.387 32.3438 13.0338 32.3438Z" fill="white"/>
<path d="M24.4136 25.3125C22.0604 25.3125 20.1462 23.4201 20.1462 21.0938C20.1462 18.7674 22.0604 16.875 24.4136 16.875C26.7667 16.875 28.681 18.7674 28.681 21.0938C28.681 23.4201 26.7667 25.3125 24.4136 25.3125Z" fill="white"/>
<path d="M24.4136 39.375C22.0604 39.375 20.1462 37.4826 20.1462 35.1562C20.1462 32.8299 22.0604 30.9375 24.4136 30.9375C26.7667 30.9375 28.681 32.8299 28.681 35.1562C28.681 37.4826 26.7667 39.375 24.4136 39.375Z" fill="white"/>
</svg>
