<svg width="40" height="48" viewBox="0 0 40 48" fill="none" xmlns="http://www.w3.org/2000/svg">
<path fill-rule="evenodd" clip-rule="evenodd" d="M22.872 10.468C21.9427 10.8373 20.9773 11.0307 19.9733 11.004C19.7827 11.0013 19.7093 10.9507 19.6987 10.7493C19.5427 8.84933 20.052 7.11067 20.968 5.47333C22.5333 2.67733 24.9147 0.950667 28.0093 0.192C28.2741 0.125348 28.5466 0.0901898 28.8343 0.053057C28.961 0.0367065 29.0907 0.0199732 29.224 0C29.2288 0.127214 29.2346 0.247475 29.2402 0.363546C29.2487 0.539445 29.2568 0.705722 29.26 0.872C29.3267 4.30133 27.1107 8.78533 22.872 10.468ZM38.9129 35.3626C38.9622 35.2177 39.0108 35.0749 39.06 34.936C35.3133 33.072 33.028 30.2 32.744 25.9547C32.4627 21.712 34.4 18.5787 37.8027 16.2067C37.7792 16.1702 37.7453 16.1214 37.713 16.0747L37.7 16.056C36.3507 14.1627 34.564 12.8627 32.368 12.128C30.8187 11.6093 29.2267 11.3973 27.5947 11.5293C26.504 11.616 25.4587 11.9227 24.4307 12.2973C23.428 12.6693 22.428 13.0493 21.4293 13.4307C20.5267 13.776 19.6293 13.776 18.728 13.4373C17.7493 13.0707 16.772 12.7013 15.7973 12.328C13.9453 11.6147 12.056 11.428 10.1133 11.8853C6.884 12.6413 4.42933 14.4747 2.68933 17.2733C1.30267 19.5 0.7 21.9707 0.546667 24.5653C0.416 26.7293 0.629333 28.864 1.07467 30.9813C2.108 35.9053 4.248 40.3013 7.436 44.1893C8.10933 45.008 8.82933 45.7813 9.68667 46.416C10.3773 46.9267 11.1213 47.3227 11.972 47.4813C12.9467 47.6653 13.904 47.54 14.8267 47.2307C15.3816 47.0438 15.9242 46.8214 16.4667 46.5989C16.7024 46.5023 16.938 46.4057 17.1747 46.312C19.3413 45.456 21.532 45.3507 23.7347 46.1507C24.1742 46.3104 24.6054 46.4948 25.0366 46.6792C25.2711 46.7794 25.5055 46.8797 25.7413 46.976C26.6653 47.352 27.624 47.5333 28.6227 47.5013C29.952 47.4547 31.1013 46.944 32.1 46.0987C32.6053 45.6733 33.0947 45.2147 33.5147 44.708C35.6907 42.1053 37.484 39.2653 38.6653 36.0667C38.7532 35.8319 38.8339 35.5946 38.9129 35.3626Z" fill="#FF0043"/>
</svg>
